<svg xmlns="http://www.w3.org/2000/svg" width="900" height="260" viewBox="0 0 900 260">
  <style>text{font-family:Arial,sans-serif;font-size:16px}.box{fill:#f7f9fc;stroke:#355c9a;stroke-width:2}.line{stroke:#555;stroke-width:2}</style>
  <rect class="box" x="20" y="95" width="120" height="55" rx="8"/><text x="49" y="128">61-mer</text>
  <line class="line" x1="140" y1="122" x2="220" y2="65"/><line class="line" x1="140" y1="122" x2="220" y2="185"/>
  <rect class="box" x="220" y="25" width="210" height="80" rx="8"/><text x="244" y="58">Frozen ESM2-650M</text><text x="255" y="83">mean pool → 1280</text>
  <rect class="box" x="220" y="145" width="210" height="80" rx="8"/><text x="244" y="178">Student Transformer</text><text x="252" y="203">pool 256 → 1280</text>
  <line class="line" x1="430" y1="65" x2="520" y2="122"/><line class="line" x1="430" y1="185" x2="520" y2="122"/>
  <rect class="box" x="520" y="95" width="120" height="55" rx="8"/><text x="545" y="128">MSE loss</text>
  <line class="line" x1="430" y1="185" x2="700" y2="65"/><line class="line" x1="430" y1="185" x2="700" y2="185"/>
  <rect class="box" x="700" y="35" width="170" height="55" rx="8"/><text x="724" y="68">Binary head</text>
  <rect class="box" x="700" y="155" width="170" height="55" rx="8"/><text x="724" y="188">Family head</text>
</svg>

